#!OML:ASF G:\JayActor3\Patient Classification 1\Patient 1\Session 2\male.ASF
:FULLY-SPECIFIED
:DEGREES
3100
root -22.7864 16.8915 -5.93786 2038.65 -101.128 -960.071
lowerback -6.99462 2.39228 9.93549
upperback -3.90174 2.4661 0.536718
thorax 0.236334 1.05162 -4.82838
lowerneck -6.48149 9.2468 2.98714
upperneck 13.7955 9.72855 16.1105
head 4.55087 5.82486 5.04527
rclavicle -3.99557e-014 2.38542e-014
rhumerus -58.6994 24.6926 -111.607
rradius 105.193
rwrist -13.6771
rhand 7.68871 8.5808
rfingers 7.12502
rthumb 32.931 -18.4339
lclavicle -3.99557e-014 2.38542e-014
lhumerus -34.0647 -43.1838 109.73
lradius 137.363
lwrist 35.0942
lhand -5.18309 6.19703
lfingers 7.12502
lthumb 20.6175 35.122
rfemur 23.0192 -12.0799 33.891
rtibia 4.47621
rfoot -4.42526 -2.61958
rtoes 8.42716
lfemur -23.8422 10.0493 -19.9228
ltibia 21.7461
lfoot 4.26377 -2.0406
ltoes -8.70697
3101
root -22.9119 16.8798 -5.92762 2039.87 -101.014 -961.247
lowerback -7.17133 2.36978 9.94836
upperback -3.97801 2.41301 0.577754
thorax 0.244848 1.02064 -4.7928
lowerneck -6.54048 9.29945 3.08488
upperneck 14.1383 9.76521 15.9103
head 4.68059 5.85597 4.99117
rclavicle -1.09332e-014 2.22639e-014
rhumerus -58.7552 24.748 -111.646
rradius 105.147
rwrist -13.7367
rhand 7.67356 8.56867
rfingers 7.12502
rthumb 32.9166 -18.4491
lclavicle -1.09332e-014 2.22639e-014
lhumerus -34.046 -43.2714 109.641
lradius 137.467
lwrist 35.1493
lhand -5.19877 6.23894
lfingers 7.12502
lthumb 20.6024 35.1656
rfemur 23.346 -11.729 33.7974
rtibia 4.61665
rfoot -4.10001 -2.49533
rtoes 8.66849
lfemur -23.3892 9.91286 -19.7735
ltibia 21.8558
lfoot 3.31491 -2.37651
ltoes -8.12661
3102
root -23.0393 16.8683 -5.91776 2041.12 -100.884 -962.447
lowerback -7.34724 2.33932 9.93218
upperback -4.05692 2.3513 0.618249
thorax 0.247973 0.985389 -4.74259
lowerneck -6.60765 9.35784 3.17054
upperneck 14.4721 9.81611 15.6938
head 4.80848 5.89203 4.93469
rclavicle 6.95746e-015 -2.14687e-014
rhumerus -58.8097 24.804 -111.684
rradius 105.099
rwrist -13.8003
rhand 7.67419 8.5521
rfingers 7.12502
rthumb 32.9172 -18.4656
lclavicle 6.95746e-015 -2.14687e-014
lhumerus -34.0404 -43.3664 109.551
lradius 137.579
lwrist 35.183
lhand -5.22383 6.26756
lfingers 7.12502
lthumb 20.5783 35.1968
rfemur 23.6291 -11.3713 33.6908
rtibia 4.85571
rfoot -3.80193 -2.39611
rtoes 8.9716
lfemur -22.9357 9.763 -19.6332
ltibia 21.9609
lfoot 2.31507 -2.65797
ltoes -7.59207
3103
root -23.1682 16.8574 -5.90827 2042.42 -100.734 -963.702
lowerback -7.51109 2.30576 9.89159
upperback -4.14175 2.28879 0.65685
thorax 0.23754 0.94922 -4.68148
lowerneck -6.67714 9.41888 3.24384
upperneck 14.7839 9.88077 15.4532
head 4.92991 5.93143 4.87246
rclavicle 1.23246e-014 3.18055e-014
rhumerus -58.8607 24.8444 -111.717
rradius 105.05
rwrist -13.8484
rhand 7.67772 8.53571
rfingers 7.12502
rthumb 32.9205 -18.4812
lclavicle 1.23246e-014 3.18055e-014
lhumerus -34.0474 -43.4716 109.468
lradius 137.691
lwrist 35.1874
lhand -5.24537 6.27889
lfingers 7.12502
lthumb 20.5576 35.2104
rfemur 23.8721 -11.0021 33.5708
rtibia 5.18135
rfoot -3.52765 -2.32158
rtoes 9.4558
lfemur -22.4969 9.64916 -19.5223
ltibia 22.069
lfoot 1.3681 -2.91236
ltoes -6.66091
3104
root -23.2986 16.848 -5.89918 2043.79 -100.558 -965.038
lowerback -7.66178 2.2669 9.82095
upperback -4.23526 2.22324 0.693478
thorax 0.209666 0.910841 -4.60664
lowerneck -6.7044 9.48902 3.33258
upperneck 15.0496 9.97484 15.1616
head 5.03201 5.97877 4.78885
rclavicle 7.95139e-015 1.51076e-014
rhumerus -58.9235 24.8706 -111.757
rradius 105.006
rwrist -13.8832
rhand 7.70972 8.51416
rfingers 7.12502
rthumb 32.951 -18.4964
lclavicle 7.95139e-015 1.51076e-014
lhumerus -34.0727 -43.5692 109.388
lradius 137.805
lwrist 35.1596
lhand -5.27914 6.27957
lfingers 7.12502
lthumb 20.5252 35.2146
rfemur 24.0708 -10.6155 33.4293
rtibia 5.59956
rfoot -3.27496 -2.27366
rtoes 10.1312
lfemur -22.0767 9.60745 -19.4591
ltibia 22.1922
lfoot 0.554274 -3.14295
ltoes -5.16473
3105
root -23.4302 16.8404 -5.89051 2045.27 -100.354 -966.482
lowerback -7.79488 2.22568 9.72334
upperback -4.33923 2.15905 0.726888
thorax 0.160918 0.872215 -4.5208
lowerneck -6.69522 9.56671 3.42482
upperneck 15.269 10.0972 14.822
head 5.11494 6.03344 4.68689
rclavicle 2.80286e-014 -3.81667e-014
rhumerus -58.9982 24.877 -111.803
rradius 104.966
rwrist -13.9
rhand 7.77182 8.49491
rfingers 7.12502
rthumb 33.01 -18.5032
lclavicle 2.80286e-014 -3.81667e-014
lhumerus -34.1213 -43.6518 109.321
lradius 137.916
lwrist 35.1038
lhand -5.32165 6.2756
lfingers 7.12502
lthumb 20.4843 35.215
rfemur 24.2 -10.2085 33.2651
rtibia 6.14524
rfoot -3.03916 -2.25031
rtoes 10.8989
lfemur -21.6757 9.64229 -19.4452
ltibia 22.3365
lfoot -0.0807647 -3.30572
ltoes -3.22798
3106
root -23.5623 16.835 -5.88237 2046.87 -100.122 -968.063
lowerback -7.90682 2.18602 9.5998
upperback -4.43609 2.10136 0.758437
thorax 0.108625 0.83765 -4.42242
lowerneck -6.71161 9.6494 3.49625
upperneck 15.4479 10.2429 14.4322
head 5.19025 6.09435 4.57349
rclavicle 1.00386e-014 -1.90833e-014
rhumerus -59.0461 24.8771 -111.83
rradius 104.927
rwrist -13.9098
rhand 7.84069 8.47344
rfingers 7.12502
rthumb 33.0755 -18.5108
lclavicle 1.00386e-014 -1.90833e-014
lhumerus -34.1481 -43.7304 109.244
lradius 138.02
lwrist 35.0322
lhand -5.35393 6.27295
lfingers 7.12502
lthumb 20.4533 35.2157
rfemur 24.2341 -9.78041 33.0777
rtibia 6.85756
rfoot -2.82635 -2.24642
rtoes 11.7419
lfemur -21.2848 9.73901 -19.473
ltibia 22.5005
lfoot -0.559774 -3.35447
ltoes -1.16142
